<svg xmlns="http://www.w3.org/2000/svg" width="100%" height="100%" preserveAspectRatio="xMidYMid meet" viewBox="0 0 299.9999694824219 70.51469421386719" overflow="visible"><defs id="SvgjsDefs1643"></defs><g id="SvgjsG1644" transform="scale(0.6863145822021852)" opacity="1"><g id="SvgjsG1645" class="VBv3sUM2r" transform="translate(0, 0) scale(0.3839461795836267)" light-content="false" non-strokable="false" fill="#ffffff"><path d="M219.6 48.1c-22.9-22.9-53.4-35.5-85.8-35.5S71 25.2 48.1 48.1s-35.5 53.4-35.5 85.8 12.6 62.9 35.5 85.8 53.4 35.5 85.8 35.5 62.9-12.6 85.8-35.5 35.5-53.4 35.5-85.8-12.7-62.9-35.6-85.8z"></path><path d="M133.8 0C59.9 0 0 59.9 0 133.8s59.9 133.8 133.8 133.8 133.8-59.9 133.8-133.8S207.8 0 133.8 0zm0 260.1c-69.7 0-126.3-56.5-126.3-126.3S64.1 7.6 133.8 7.6s126.3 56.5 126.3 126.3-56.5 126.2-126.3 126.2z"></path></g><g id="SvgjsG1646" class="40guFrp4Z1" transform="translate(23.167424080524768, 23.005644693508255) scale(0.5640948322400665)" light-content="true" non-strokable="false" fill="#050505"><path d="M50.299 6.573C40.379 16.97 34.043 32.63 33.966 50.181 33.89 67.732 40.088 83.518 49.918 94c-2.85-15.867-.277-33.22 8.136-47.2 2.137-3.551 4.54-6.7 7.144-9.43C62.982 25.116 57.655 14.402 50.3 6.573z" color="#000"></path><path d="M6.181 24.14c-2.92 15.853-.477 33.146 7.875 47.163 8.351 14.017 20.351 21.873 33.206 22.693-9.876-10.44-15.602-26.198-15.602-43.75 0-4.49.406-8.828 1.181-13.018-7.634-8.035-17.058-12.488-26.66-13.089zm87.775.413C60.111 30.71 47.4 65.07 52.304 93.998 86.35 87.84 98.923 53.663 93.956 24.553z" color="#000"></path></g><g id="SvgjsG1647" class="text" transform="translate(284.5673337402344, 53.03700015258789) scale(1)" light-content="false" fill="#ffffff"><path d="M-110.91 -0.36C-110.91 -0.6 -110.97 -0.72 -111.09 -0.72C-112.57 -0.72 -113.65 -0.82 -114.33 -1.02C-115.01 -1.22 -115.47 -1.61 -115.71 -2.19C-115.95 -2.77 -116.09 -3.66 -116.13 -4.86L-116.13 -32.64C-116.13 -33.84 -116 -34.72 -115.74 -35.28C-115.48 -35.84 -115 -36.23 -114.3 -36.45C-113.6 -36.67 -112.53 -36.78 -111.09 -36.78C-110.97 -36.78 -110.91 -36.9 -110.91 -37.14C-110.91 -37.38 -110.99 -37.5 -111.15 -37.5L-113.85 -37.44C-115.45 -37.36 -116.73 -37.32 -117.69 -37.32C-118.61 -37.32 -119.87 -37.36 -121.47 -37.44L-124.23 -37.5C-124.31 -37.5 -124.35 -37.38 -124.35 -37.14C-124.35 -36.9 -124.29 -36.78 -124.17 -36.78C-122.69 -36.78 -121.61 -36.66 -120.93 -36.42C-120.25 -36.18 -119.8 -35.77 -119.58 -35.19C-119.36 -34.61 -119.27 -33.72 -119.31 -32.52L-119.31 -20.1L-141.45 -20.1L-141.45 -32.52C-141.41 -33.72 -141.27 -34.61 -141.03 -35.19C-140.79 -35.77 -140.33 -36.18 -139.65 -36.42C-138.97 -36.66 -137.89 -36.78 -136.41 -36.78C-136.33 -36.78 -136.29 -36.9 -136.29 -37.14C-136.29 -37.38 -136.33 -37.5 -136.41 -37.5L-139.17 -37.44C-140.77 -37.36 -142.07 -37.32 -143.07 -37.32C-144.07 -37.32 -145.33 -37.36 -146.85 -37.44L-149.49 -37.5C-149.61 -37.5 -149.66 -37.38 -149.64 -37.14C-149.62 -36.9 -149.57 -36.78 -149.49 -36.78C-148.05 -36.78 -147 -36.67 -146.34 -36.45C-145.68 -36.23 -145.23 -35.84 -144.99 -35.28C-144.75 -34.72 -144.61 -33.84 -144.57 -32.64L-144.57 -4.86C-144.57 -3.66 -144.7 -2.77 -144.96 -2.19C-145.22 -1.61 -145.7 -1.22 -146.4 -1.02C-147.1 -0.82 -148.17 -0.72 -149.61 -0.72C-149.77 -0.72 -149.84 -0.6 -149.82 -0.36C-149.8 -0.12 -149.73 0 -149.61 0C-148.49 0 -147.61 -0.02 -146.97 -0.06L-143.25 -0.12L-139.17 -0.06C-138.53 -0.02 -137.63 0 -136.47 0C-136.39 0 -136.35 -0.12 -136.35 -0.36C-136.35 -0.6 -136.39 -0.72 -136.47 -0.72C-137.99 -0.72 -139.09 -0.82 -139.77 -1.02C-140.45 -1.22 -140.9 -1.6 -141.12 -2.16C-141.34 -2.72 -141.45 -3.62 -141.45 -4.86L-141.45 -18.96L-119.31 -18.96L-119.25 -4.86C-119.25 -3.62 -119.37 -2.72 -119.61 -2.16C-119.85 -1.6 -120.31 -1.22 -120.99 -1.02C-121.67 -0.82 -122.75 -0.72 -124.23 -0.72C-124.35 -0.72 -124.41 -0.6 -124.41 -0.36C-124.41 -0.12 -124.35 0 -124.23 0C-123.03 0 -122.09 -0.02 -121.41 -0.06L-117.63 -0.12L-113.73 -0.06C-113.05 -0.02 -112.17 0 -111.09 0C-110.97 0 -110.91 -0.12 -110.91 -0.36Z M-97.14 -1.71C-94.44 -0.09 -91.33 0.72 -87.81 0.72C-84.13 0.72 -80.74 -0.15 -77.64 -1.89C-74.54 -3.63 -72.07 -6.07 -70.23 -9.21C-68.39 -12.35 -67.47 -15.9 -67.47 -19.86C-67.47 -23.34 -68.19 -26.47 -69.63 -29.25C-71.07 -32.03 -73.12 -34.21 -75.78 -35.79C-78.44 -37.37 -81.55 -38.16 -85.11 -38.16C-88.91 -38.16 -92.37 -37.26 -95.49 -35.46C-98.61 -33.66 -101.08 -31.2 -102.9 -28.08C-104.72 -24.96 -105.63 -21.5 -105.63 -17.7C-105.63 -14.26 -104.89 -11.14 -103.41 -8.34C-101.93 -5.54 -99.84 -3.33 -97.14 -1.71ZM-77.37 -2.91C-79.57 -1.53 -82.15 -0.84 -85.11 -0.84C-88.39 -0.84 -91.37 -1.67 -94.05 -3.33C-96.73 -4.99 -98.84 -7.28 -100.38 -10.2C-101.92 -13.12 -102.69 -16.4 -102.69 -20.04C-102.69 -23.4 -102.05 -26.34 -100.77 -28.86C-99.49 -31.38 -97.7 -33.32 -95.4 -34.68C-93.1 -36.04 -90.49 -36.72 -87.57 -36.72C-84.33 -36.72 -81.41 -35.88 -78.81 -34.2C-76.21 -32.52 -74.17 -30.2 -72.69 -27.24C-71.21 -24.28 -70.47 -20.96 -70.47 -17.28C-70.47 -14.04 -71.07 -11.18 -72.27 -8.7C-73.47 -6.22 -75.17 -4.29 -77.37 -2.91Z M-26.49 -0.36C-26.49 -0.6 -26.55 -0.72 -26.67 -0.72C-28.03 -0.72 -29.07 -0.85 -29.79 -1.11C-30.51 -1.37 -31.07 -1.79 -31.47 -2.37C-31.87 -2.95 -32.29 -3.84 -32.73 -5.04L-44.49 -38.04C-44.61 -38.24 -44.85 -38.34 -45.21 -38.34C-45.49 -38.34 -45.67 -38.26 -45.75 -38.1L-58.83 -7.2C-60.67 -2.88 -63.05 -0.72 -65.97 -0.72C-66.13 -0.72 -66.21 -0.6 -66.21 -0.36C-66.21 -0.12 -66.13 0 -65.97 0C-65.25 0 -64.33 -0.04 -63.21 -0.12C-61.93 -0.2 -60.81 -0.24 -59.85 -0.24C-59.01 -0.24 -57.79 -0.2 -56.19 -0.12C-54.83 -0.04 -53.91 0 -53.43 0C-53.23 0 -53.13 -0.12 -53.13 -0.36C-53.13 -0.6 -53.21 -0.72 -53.37 -0.72C-54.89 -0.72 -56.01 -0.91 -56.73 -1.29C-57.45 -1.67 -57.81 -2.4 -57.81 -3.48C-57.81 -4.56 -57.43 -6.06 -56.67 -7.98L-51.63 -20.34L-41.43 -20.34L-35.97 -5.04C-35.61 -4.04 -35.43 -3.24 -35.43 -2.64C-35.43 -1.92 -35.73 -1.42 -36.33 -1.14C-36.93 -0.86 -37.99 -0.72 -39.51 -0.72C-39.67 -0.72 -39.75 -0.6 -39.75 -0.36C-39.75 -0.12 -39.67 0 -39.51 0C-38.87 0 -37.91 -0.04 -36.63 -0.12C-35.27 -0.2 -34.15 -0.24 -33.27 -0.24C-32.39 -0.24 -31.19 -0.2 -29.67 -0.12C-28.31 -0.04 -27.31 0 -26.67 0C-26.55 0 -26.49 -0.12 -26.49 -0.36ZM-51.15 -21.48L-46.17 -33.6L-41.85 -21.48Z M13.17 -37.14C13.17 -37.38 13.13 -37.5 13.05 -37.5L10.77 -37.44C9.65 -37.36 8.75 -37.32 8.07 -37.32C7.31 -37.32 6.37 -37.36 5.25 -37.44L3.21 -37.5C3.13 -37.5 3.09 -37.38 3.09 -37.14C3.09 -36.9 3.13 -36.78 3.21 -36.78C4.77 -36.78 5.85 -36.37 6.45 -35.55C7.05 -34.73 7.37 -33.28 7.41 -31.2L7.53 -4.74L-14.79 -34.38C-14.99 -34.66 -15.43 -35.34 -16.11 -36.42C-16.35 -36.86 -16.54 -37.15 -16.68 -37.29C-16.82 -37.43 -17.03 -37.5 -17.31 -37.5C-17.55 -37.5 -17.89 -37.48 -18.33 -37.44C-18.77 -37.4 -19.31 -37.38 -19.95 -37.38C-20.67 -37.38 -21.25 -37.4 -21.69 -37.44L-23.85 -37.5C-23.97 -37.5 -24.03 -37.38 -24.03 -37.14C-24.03 -36.9 -23.97 -36.78 -23.85 -36.78C-22.37 -36.78 -20.93 -36.14 -19.53 -34.86L-19.53 -6.24C-19.49 -4.24 -19.81 -2.82 -20.49 -1.98C-21.17 -1.14 -22.31 -0.72 -23.91 -0.72C-24.03 -0.72 -24.09 -0.6 -24.09 -0.36C-24.09 -0.12 -24.03 0 -23.91 0C-22.99 0 -22.27 -0.02 -21.75 -0.06L-18.93 -0.12L-16.11 -0.06C-15.67 -0.02 -15.01 0 -14.13 0C-14.01 0 -13.95 -0.12 -13.95 -0.36C-13.95 -0.6 -14.01 -0.72 -14.13 -0.72C-15.69 -0.72 -16.77 -1.13 -17.37 -1.95C-17.97 -2.77 -18.29 -4.2 -18.33 -6.24L-18.39 -33.72L-17.49 -32.58L7.83 0.66C7.95 0.78 8.11 0.84 8.31 0.84C8.47 0.84 8.57 0.78 8.61 0.66L8.61 -31.2C8.57 -33.2 8.9 -34.63 9.6 -35.49C10.3 -36.35 11.45 -36.78 13.05 -36.78C13.13 -36.78 13.17 -36.9 13.17 -37.14Z M28.23 -1.77C31.39 -0.11 35.09 0.72 39.33 0.72C42.77 0.72 46.69 0.16 51.09 -0.96C51.33 -1.04 51.49 -1.13 51.57 -1.23C51.65 -1.33 51.69 -1.48 51.69 -1.68C51.69 -1.88 51.62 -2.33 51.48 -3.03C51.34 -3.73 51.27 -5.04 51.27 -6.96C51.27 -9.2 51.34 -10.79 51.48 -11.73C51.62 -12.67 51.89 -13.29 52.29 -13.59C52.69 -13.89 53.37 -14.02 54.33 -13.98C54.53 -13.98 54.62 -14.12 54.6 -14.4C54.58 -14.68 54.49 -14.82 54.33 -14.82C52.41 -14.7 50.59 -14.64 48.87 -14.64C47.07 -14.64 44.77 -14.74 41.97 -14.94C41.81 -14.94 41.73 -14.78 41.73 -14.46C41.73 -14.14 41.83 -13.98 42.03 -13.98C44.19 -13.98 45.69 -13.84 46.53 -13.56C47.37 -13.28 47.91 -12.73 48.15 -11.91C48.39 -11.09 48.51 -9.64 48.51 -7.56C48.51 -5.52 48.26 -3.98 47.76 -2.94C47.26 -1.9 46.47 -1.2 45.39 -0.84C44.31 -0.48 42.77 -0.3 40.77 -0.3C37.21 -0.3 34.02 -1.15 31.2 -2.85C28.38 -4.55 26.17 -6.95 24.57 -10.05C22.97 -13.15 22.17 -16.68 22.17 -20.64C22.17 -25.64 23.61 -29.6 26.49 -32.52C29.37 -35.44 33.41 -36.9 38.61 -36.9C41.81 -36.9 44.46 -36.15 46.56 -34.65C48.66 -33.15 50.03 -30.98 50.67 -28.14C50.71 -27.98 50.85 -27.91 51.09 -27.93C51.33 -27.95 51.45 -28.04 51.45 -28.2L50.79 -34.5C50.75 -34.86 50.69 -35.11 50.61 -35.25C50.53 -35.39 50.33 -35.6 50.01 -35.88C48.93 -36.64 47.6 -37.21 46.02 -37.59C44.44 -37.97 42.73 -38.16 40.89 -38.16C36.65 -38.16 32.83 -37.32 29.43 -35.64C26.03 -33.96 23.36 -31.63 21.42 -28.65C19.48 -25.67 18.51 -22.28 18.51 -18.48C18.51 -14.84 19.34 -11.56 21 -8.64C22.66 -5.72 25.07 -3.43 28.23 -1.77Z M116.37 -0.36C116.37 -0.6 116.31 -0.72 116.19 -0.72C114.71 -0.72 113.64 -0.82 112.98 -1.02C112.32 -1.22 111.87 -1.6 111.63 -2.16C111.39 -2.72 111.23 -3.62 111.15 -4.86L110.31 -32.76C110.23 -34.36 110.62 -35.43 111.48 -35.97C112.34 -36.51 113.75 -36.78 115.71 -36.78C115.83 -36.78 115.89 -36.9 115.89 -37.14C115.89 -37.38 115.83 -37.5 115.71 -37.5C114.95 -37.5 114.35 -37.48 113.91 -37.44L111.21 -37.38C110.65 -37.38 110.18 -37.4 109.8 -37.44C109.42 -37.48 109.13 -37.5 108.93 -37.5C108.53 -37.5 108.16 -37.36 107.82 -37.08C107.48 -36.8 107.23 -36.44 107.07 -36L94.65 -5.1L82.17 -34.38C81.57 -35.66 81.1 -36.5 80.76 -36.9C80.42 -37.3 80.01 -37.5 79.53 -37.5C79.33 -37.5 79.02 -37.48 78.6 -37.44C78.18 -37.4 77.67 -37.38 77.07 -37.38C76.47 -37.38 75.97 -37.4 75.57 -37.44L73.53 -37.5C73.45 -37.5 73.41 -37.38 73.41 -37.14C73.41 -36.9 73.47 -36.78 73.59 -36.78C75.51 -36.78 77.01 -36.14 78.09 -34.86L77.91 -6.24C77.91 -4.2 77.57 -2.77 76.89 -1.95C76.21 -1.13 75.07 -0.72 73.47 -0.72C73.39 -0.72 73.35 -0.6 73.35 -0.36C73.35 -0.12 73.41 0 73.53 0C74.49 0 75.23 -0.02 75.75 -0.06L78.45 -0.12L81.33 -0.06C81.77 -0.02 82.43 0 83.31 0C83.47 0 83.54 -0.12 83.52 -0.36C83.5 -0.6 83.43 -0.72 83.31 -0.72C81.75 -0.72 80.68 -1.12 80.1 -1.92C79.52 -2.72 79.21 -4.16 79.17 -6.24L79.29 -32.94L79.47 -32.52L93.15 -0.48C93.23 -0.28 93.39 -0.18 93.63 -0.18C93.91 -0.18 94.05 -0.26 94.05 -0.42L107.25 -33.36L108.09 -4.86C108.13 -3.66 108.03 -2.78 107.79 -2.22C107.55 -1.66 107.08 -1.27 106.38 -1.05C105.68 -0.83 104.59 -0.72 103.11 -0.72C102.95 -0.72 102.88 -0.6 102.9 -0.36C102.92 -0.12 102.99 0 103.11 0C104.23 0 105.11 -0.02 105.75 -0.06L109.59 -0.12L113.61 -0.06C114.25 -0.02 115.11 0 116.19 0C116.31 0 116.37 -0.12 116.37 -0.36Z M152.55 -37.14C152.55 -37.38 152.47 -37.5 152.31 -37.5L150.27 -37.44C149.31 -37.36 148.51 -37.32 147.87 -37.32C146.79 -37.32 145.57 -37.36 144.21 -37.44L141.63 -37.5C141.47 -37.5 141.39 -37.38 141.39 -37.14C141.39 -36.9 141.47 -36.78 141.63 -36.78C143.59 -36.78 144.57 -36.12 144.57 -34.8C144.57 -33.96 144.17 -32.84 143.37 -31.44L136.35 -19.62L126.81 -34.38C126.41 -34.9 126.21 -35.34 126.21 -35.7C126.21 -36.1 126.45 -36.38 126.93 -36.54C127.41 -36.7 128.19 -36.78 129.27 -36.78C129.47 -36.78 129.57 -36.9 129.57 -37.14C129.57 -37.38 129.47 -37.5 129.27 -37.5L126.39 -37.44C124.55 -37.36 123.03 -37.32 121.83 -37.32L119.85 -37.38C118.89 -37.46 118.19 -37.5 117.75 -37.5C117.63 -37.5 117.57 -37.38 117.57 -37.14C117.57 -36.9 117.63 -36.78 117.75 -36.78C119.11 -36.78 120.25 -36.46 121.17 -35.82C122.09 -35.18 123.05 -34.08 124.05 -32.52L133.65 -18L133.71 -4.86C133.71 -3.66 133.58 -2.77 133.32 -2.19C133.06 -1.61 132.58 -1.22 131.88 -1.02C131.18 -0.82 130.09 -0.72 128.61 -0.72C128.45 -0.72 128.37 -0.6 128.37 -0.36C128.37 -0.12 128.45 0 128.61 0C129.77 0 130.67 -0.02 131.31 -0.06L135.27 -0.12L139.05 -0.06C139.69 -0.02 140.57 0 141.69 0C141.89 0 141.99 -0.12 141.99 -0.36C141.99 -0.6 141.89 -0.72 141.69 -0.72C140.21 -0.72 139.15 -0.82 138.51 -1.02C137.87 -1.22 137.43 -1.6 137.19 -2.16C136.95 -2.72 136.81 -3.62 136.77 -4.86L136.77 -18.54L144.75 -31.38C146.99 -34.98 149.51 -36.78 152.31 -36.78C152.47 -36.78 152.55 -36.9 152.55 -37.14Z"></path></g><g id="SvgjsG1648" class="text" transform="translate(195.59399847412112, 87.62700000000001) scale(1)" light-content="false" fill="#ffffff"><path d="M-60.85 -0.18C-60.85 -0.06 -60.82 0 -60.76 0C-60.16 0 -59.7 -0.01 -59.35 -0.03L-57.43 -0.06L-55.45 -0.03C-55.13 -0.01 -54.7 0 -54.16 0C-54.1 0 -54.07 -0.06 -54.07 -0.18C-54.07 -0.3 -54.12 -0.36 -54.19 -0.36C-54.94 -0.36 -55.47 -0.41 -55.8 -0.51C-56.13 -0.61 -56.35 -0.8 -56.47 -1.08C-56.59 -1.36 -56.66 -1.81 -56.68 -2.43L-56.68 -16.26C-56.66 -16.86 -56.59 -17.3 -56.47 -17.59C-56.35 -17.89 -56.12 -18.09 -55.78 -18.21C-55.45 -18.33 -54.91 -18.39 -54.19 -18.39C-54.12 -18.39 -54.07 -18.45 -54.07 -18.57C-54.07 -18.69 -54.12 -18.75 -54.19 -18.75L-55.45 -18.72C-56.26 -18.68 -56.95 -18.66 -57.52 -18.66C-58.04 -18.66 -58.68 -18.68 -59.44 -18.72L-60.79 -18.75C-60.83 -18.75 -60.85 -18.69 -60.85 -18.57C-60.85 -18.45 -60.83 -18.39 -60.79 -18.39C-60.06 -18.39 -59.52 -18.34 -59.17 -18.22C-58.83 -18.11 -58.6 -17.92 -58.47 -17.64C-58.34 -17.36 -58.27 -16.92 -58.27 -16.32L-58.27 -2.43C-58.25 -1.83 -58.31 -1.39 -58.44 -1.11C-58.57 -0.83 -58.81 -0.64 -59.16 -0.52C-59.51 -0.41 -60.06 -0.36 -60.79 -0.36C-60.83 -0.36 -60.85 -0.3 -60.85 -0.18Z M-37.61 -2.34L-37.66 -2.31C-38.51 -1.33 -39.18 -0.84 -39.7 -0.84C-40.01 -0.84 -40.23 -0.99 -40.36 -1.29C-40.5 -1.59 -40.58 -2.05 -40.58 -2.67L-40.54 -8.01C-40.53 -9.39 -40.72 -10.39 -41.14 -11.02C-41.57 -11.65 -42.21 -11.97 -43.09 -11.97C-44.35 -11.97 -45.43 -11.34 -46.32 -10.09C-47.21 -8.85 -47.83 -7.12 -48.19 -4.92L-48.19 -9.6C-48.19 -10.38 -48.31 -10.95 -48.55 -11.31C-48.79 -11.67 -49.17 -11.85 -49.66 -11.85C-50.2 -11.85 -50.73 -11.65 -51.25 -11.25C-51.77 -10.85 -52.33 -10.26 -52.9 -9.48C-52.94 -9.42 -52.94 -9.36 -52.89 -9.28C-52.84 -9.21 -52.78 -9.18 -52.69 -9.18C-52.66 -9.18 -52.61 -9.2 -52.57 -9.24C-51.67 -10.24 -50.98 -10.74 -50.47 -10.74C-49.87 -10.74 -49.57 -10.13 -49.57 -8.91L-49.64 -2.22C-49.64 -1.7 -49.65 -1.21 -49.68 -0.73C-49.71 -0.26 -49.72 0 -49.72 0.06C-49.68 0.12 -49.62 0.16 -49.51 0.2C-49.41 0.22 -49.23 0.24 -48.97 0.24C-48.73 0.24 -48.55 0.2 -48.4 0.12C-48.26 0.04 -48.19 -0.06 -48.19 -0.18C-48.17 -2.44 -47.96 -4.38 -47.56 -6C-47.17 -7.62 -46.63 -8.85 -45.97 -9.69C-45.32 -10.53 -44.59 -10.95 -43.82 -10.95C-42.57 -10.95 -41.95 -9.78 -41.95 -7.44L-41.98 -1.95C-41.98 -0.47 -41.46 0.27 -40.43 0.27C-39.93 0.27 -39.43 0.08 -38.95 -0.3C-38.47 -0.68 -37.93 -1.27 -37.33 -2.07C-37.3 -2.11 -37.31 -2.16 -37.38 -2.23C-37.45 -2.31 -37.53 -2.34 -37.61 -2.34Z M-22.66 -2.34L-22.72 -2.31C-23.56 -1.33 -24.24 -0.84 -24.76 -0.84C-25.06 -0.84 -25.29 -0.99 -25.42 -1.29C-25.56 -1.59 -25.63 -2.05 -25.63 -2.67L-25.6 -8.01C-25.59 -9.39 -25.78 -10.39 -26.2 -11.02C-26.62 -11.65 -27.27 -11.97 -28.15 -11.97C-29.41 -11.97 -30.49 -11.34 -31.38 -10.09C-32.27 -8.85 -32.9 -7.12 -33.26 -4.92L-33.26 -9.6C-33.26 -10.38 -33.37 -10.95 -33.61 -11.31C-33.85 -11.67 -34.23 -11.85 -34.72 -11.85C-35.26 -11.85 -35.79 -11.65 -36.31 -11.25C-36.83 -10.85 -37.39 -10.26 -37.97 -9.48C-38 -9.42 -38 -9.36 -37.95 -9.28C-37.9 -9.21 -37.84 -9.18 -37.76 -9.18C-37.72 -9.18 -37.67 -9.2 -37.63 -9.24C-36.73 -10.24 -36.04 -10.74 -35.53 -10.74C-34.93 -10.74 -34.63 -10.13 -34.63 -8.91L-34.69 -2.22C-34.69 -1.7 -34.71 -1.21 -34.74 -0.73C-34.77 -0.26 -34.78 0 -34.78 0.06C-34.74 0.12 -34.68 0.16 -34.58 0.2C-34.47 0.22 -34.29 0.24 -34.03 0.24C-33.79 0.24 -33.61 0.2 -33.47 0.12C-33.32 0.04 -33.26 -0.06 -33.26 -0.18C-33.23 -2.44 -33.02 -4.38 -32.62 -6C-32.23 -7.62 -31.69 -8.85 -31.03 -9.69C-30.37 -10.53 -29.65 -10.95 -28.87 -10.95C-27.63 -10.95 -27.01 -9.78 -27.01 -7.44L-27.04 -1.95C-27.04 -0.47 -26.52 0.27 -25.48 0.27C-24.99 0.27 -24.49 0.08 -24.01 -0.3C-23.53 -0.68 -22.99 -1.27 -22.39 -2.07C-22.36 -2.11 -22.37 -2.16 -22.44 -2.23C-22.51 -2.31 -22.59 -2.34 -22.66 -2.34Z M-20.29 -1.21C-19.38 -0.13 -18.16 0.42 -16.63 0.42C-15.59 0.42 -14.63 0.15 -13.74 -0.39C-12.85 -0.93 -12.14 -1.7 -11.61 -2.71C-11.08 -3.73 -10.81 -4.91 -10.81 -6.27C-10.81 -8.09 -11.28 -9.49 -12.22 -10.48C-13.17 -11.47 -14.37 -11.97 -15.82 -11.97C-16.94 -11.97 -17.95 -11.68 -18.84 -11.11C-19.73 -10.54 -20.43 -9.75 -20.92 -8.74C-21.42 -7.74 -21.67 -6.62 -21.67 -5.4C-21.68 -3.7 -21.22 -2.3 -20.29 -1.21ZM-13.11 -1.59C-13.82 -0.75 -14.7 -0.33 -15.73 -0.33C-16.63 -0.33 -17.44 -0.64 -18.16 -1.26C-18.88 -1.88 -19.44 -2.67 -19.84 -3.64C-20.25 -4.61 -20.44 -5.62 -20.44 -6.66C-20.44 -8.06 -20.08 -9.17 -19.35 -10C-18.62 -10.83 -17.71 -11.25 -16.63 -11.25C-15.73 -11.25 -14.94 -10.95 -14.23 -10.36C-13.53 -9.78 -12.99 -9 -12.61 -8.04C-12.24 -7.08 -12.04 -6.07 -12.04 -5.01C-12.04 -3.57 -12.4 -2.43 -13.11 -1.59Z M-5.8 -0.79C-5.14 -0.01 -4.3 0.39 -3.25 0.39C-2.35 0.39 -1.48 0.1 -0.64 -0.49C0.2 -1.08 0.88 -1.93 1.42 -3.04C1.97 -4.15 2.24 -5.44 2.24 -6.9C2.24 -8.1 2.05 -9.23 1.68 -10.29C1.31 -11.35 0.78 -11.88 0.08 -11.88C-0.17 -11.88 -0.39 -11.82 -0.6 -11.68C-0.81 -11.55 -0.91 -11.36 -0.91 -11.1C-0.91 -10.7 -0.6 -10.31 0.04 -9.93C1.05 -9.29 1.55 -8.21 1.55 -6.69C1.55 -5.75 1.37 -4.83 1.02 -3.93C0.67 -3.03 0.18 -2.29 -0.46 -1.72C-1.1 -1.15 -1.83 -0.87 -2.65 -0.87C-3.49 -0.87 -4.16 -1.19 -4.66 -1.84C-5.17 -2.49 -5.41 -3.55 -5.41 -5.01C-5.41 -6.73 -5.06 -8.81 -4.36 -11.25C-4.3 -11.41 -4.29 -11.51 -4.32 -11.55C-4.35 -11.59 -4.46 -11.61 -4.66 -11.61L-7.57 -11.61C-8.28 -11.61 -8.78 -11.55 -9.09 -11.43C-9.4 -11.31 -9.63 -11.07 -9.78 -10.69C-9.93 -10.32 -10.09 -9.68 -10.27 -8.76C-10.3 -8.7 -10.28 -8.65 -10.23 -8.61C-10.18 -8.57 -10.12 -8.55 -10.06 -8.55C-10.03 -8.55 -9.98 -8.56 -9.94 -8.58C-9.91 -8.6 -9.88 -8.63 -9.88 -8.67C-9.8 -9.19 -9.7 -9.55 -9.59 -9.76C-9.46 -9.97 -9.28 -10.11 -9.01 -10.17C-8.75 -10.23 -8.32 -10.26 -7.72 -10.26L-5.95 -10.26C-5.62 -10.26 -5.44 -10.13 -5.44 -9.87C-5.44 -9.73 -5.47 -9.61 -5.5 -9.51L-5.95 -7.92C-6.23 -7.02 -6.45 -6.27 -6.58 -5.67C-6.72 -5.07 -6.79 -4.47 -6.79 -3.87C-6.79 -2.61 -6.46 -1.58 -5.8 -0.79Z M17.6 -2.34C17.55 -2.34 17.52 -2.33 17.51 -2.31C16.69 -1.33 16.02 -0.84 15.5 -0.84C15.18 -0.84 14.94 -0.99 14.81 -1.29C14.67 -1.59 14.6 -2.05 14.6 -2.67L14.68 -12.18C14.68 -12.22 14.62 -12.24 14.49 -12.24C14.36 -12.24 14.3 -12.22 14.3 -12.18C14.28 -11.8 14.1 -11.45 13.79 -11.13C13.2 -11.69 12.44 -11.97 11.48 -11.97C10.36 -11.97 9.27 -11.52 8.22 -10.6C7.17 -9.69 6.32 -8.53 5.66 -7.12C5 -5.71 4.67 -4.31 4.67 -2.91C4.67 -1.75 4.9 -0.91 5.36 -0.39C5.82 0.13 6.42 0.39 7.16 0.39C8.38 0.39 9.53 -0.2 10.62 -1.39C11.71 -2.59 12.6 -4.14 13.31 -6.06L13.25 -1.95C13.23 -1.21 13.35 -0.65 13.61 -0.28C13.86 0.08 14.25 0.27 14.77 0.27C15.27 0.27 15.77 0.08 16.25 -0.3C16.73 -0.68 17.27 -1.27 17.86 -2.07C17.91 -2.11 17.89 -2.16 17.82 -2.23C17.75 -2.31 17.67 -2.34 17.6 -2.34ZM10.44 -2.14C9.63 -1.32 8.8 -0.9 7.94 -0.9C7.3 -0.9 6.82 -1.15 6.51 -1.65C6.2 -2.15 6.05 -2.93 6.05 -3.99C6.05 -5.33 6.27 -6.53 6.71 -7.6C7.14 -8.67 7.73 -9.51 8.48 -10.11C9.22 -10.71 10.01 -11.01 10.85 -11.01C11.51 -11.01 12.06 -10.8 12.5 -10.36C12.93 -9.93 13.16 -9.38 13.16 -8.7C13.16 -7.62 12.9 -6.46 12.41 -5.23C11.91 -4 11.25 -2.97 10.44 -2.14Z M26.42 -2.04L26.39 -2.04C25.85 -1.58 25.35 -1.23 24.9 -0.99C24.45 -0.75 23.93 -0.63 23.33 -0.63C22.61 -0.63 22.1 -0.82 21.81 -1.21C21.52 -1.6 21.38 -2.22 21.38 -3.06L21.41 -10.59C22.33 -10.57 23.51 -10.47 24.95 -10.29C25.19 -10.25 25.4 -10.34 25.59 -10.57C25.78 -10.8 25.89 -11.02 25.91 -11.22C25.91 -11.38 25.82 -11.46 25.64 -11.46C23.6 -11.34 22.19 -11.27 21.41 -11.25L21.41 -13.41C21.41 -13.47 21.32 -13.5 21.14 -13.5C20.96 -13.5 20.88 -13.47 20.9 -13.41C20.86 -12.75 20.62 -12.21 20.19 -11.8C19.76 -11.4 19.19 -11.19 18.5 -11.19C18.42 -11.19 18.38 -11.13 18.38 -11.01C18.38 -10.89 18.41 -10.83 18.5 -10.83C18.98 -10.83 19.31 -10.8 19.5 -10.72C19.69 -10.65 19.81 -10.51 19.86 -10.3C19.91 -10.09 19.94 -9.72 19.97 -9.18L19.93 -2.04C19.93 -1.2 20.16 -0.59 20.63 -0.21C21.09 0.17 21.68 0.36 22.43 0.36C23.09 0.36 23.75 0.19 24.41 -0.15C25.07 -0.49 25.8 -1.04 26.63 -1.8C26.69 -1.84 26.68 -1.89 26.61 -1.95C26.54 -2.01 26.48 -2.04 26.42 -2.04Z M30.4 -0.3C30.68 0.08 31.08 0.27 31.6 0.27C32.11 0.27 32.6 0.08 33.07 -0.3C33.56 -0.68 34.1 -1.27 34.69 -2.07C34.74 -2.11 34.72 -2.16 34.65 -2.23C34.58 -2.31 34.5 -2.34 34.42 -2.34L34.36 -2.31C33.53 -1.33 32.84 -0.84 32.32 -0.84C32.03 -0.84 31.81 -0.99 31.66 -1.29C31.52 -1.59 31.46 -2.05 31.46 -2.67L31.51 -9.6C31.51 -10.38 31.39 -10.95 31.15 -11.31C30.91 -11.67 30.54 -11.85 30.01 -11.85C29.48 -11.85 28.95 -11.65 28.42 -11.25C27.9 -10.85 27.35 -10.26 26.78 -9.48C26.74 -9.42 26.74 -9.36 26.79 -9.28C26.84 -9.21 26.9 -9.18 26.98 -9.18C27.02 -9.18 27.06 -9.2 27.1 -9.24C28 -10.24 28.7 -10.74 29.21 -10.74C29.82 -10.74 30.12 -10.13 30.1 -8.91L30.01 -1.95C30 -1.23 30.12 -0.68 30.4 -0.3ZM29.61 -15.81C29.82 -15.61 30.12 -15.51 30.49 -15.51C30.85 -15.51 31.13 -15.61 31.33 -15.81C31.54 -16.01 31.64 -16.3 31.64 -16.68C31.64 -17.02 31.54 -17.29 31.33 -17.49C31.13 -17.69 30.85 -17.79 30.49 -17.79C30.12 -17.79 29.82 -17.69 29.61 -17.49C29.4 -17.29 29.3 -17.02 29.3 -16.68C29.3 -16.3 29.4 -16.01 29.61 -15.81Z M36.91 -1.21C37.83 -0.13 39.05 0.42 40.57 0.42C41.62 0.42 42.58 0.15 43.47 -0.39C44.36 -0.93 45.07 -1.7 45.6 -2.71C46.13 -3.73 46.4 -4.91 46.4 -6.27C46.4 -8.09 45.93 -9.49 44.99 -10.48C44.04 -11.47 42.84 -11.97 41.39 -11.97C40.27 -11.97 39.26 -11.68 38.37 -11.11C37.48 -10.54 36.78 -9.75 36.28 -8.74C35.79 -7.74 35.53 -6.62 35.53 -5.4C35.53 -3.7 35.99 -2.3 36.91 -1.21ZM44.1 -1.59C43.39 -0.75 42.51 -0.33 41.47 -0.33C40.57 -0.33 39.76 -0.64 39.04 -1.26C38.32 -1.88 37.77 -2.67 37.36 -3.64C36.96 -4.61 36.76 -5.62 36.76 -6.66C36.76 -8.06 37.13 -9.17 37.86 -10C38.59 -10.83 39.49 -11.25 40.57 -11.25C41.47 -11.25 42.27 -10.95 42.97 -10.36C43.68 -9.78 44.22 -9 44.6 -8.04C44.97 -7.08 45.16 -6.07 45.16 -5.01C45.16 -3.57 44.81 -2.43 44.1 -1.59Z M62.41 -2.34L62.36 -2.31C61.51 -1.33 60.84 -0.84 60.32 -0.84C60.01 -0.84 59.79 -0.99 59.65 -1.29C59.52 -1.59 59.44 -2.05 59.44 -2.67L59.47 -8.01C59.49 -9.39 59.29 -10.39 58.87 -11.02C58.45 -11.65 57.81 -11.97 56.93 -11.97C55.66 -11.97 54.59 -11.34 53.7 -10.09C52.81 -8.85 52.18 -7.12 51.83 -4.92L51.83 -9.6C51.83 -10.38 51.71 -10.95 51.47 -11.31C51.22 -11.67 50.85 -11.85 50.36 -11.85C49.82 -11.85 49.29 -11.65 48.76 -11.25C48.25 -10.85 47.69 -10.26 47.11 -9.48C47.08 -9.42 47.08 -9.36 47.13 -9.28C47.18 -9.21 47.24 -9.18 47.33 -9.18C47.36 -9.18 47.41 -9.2 47.44 -9.24C48.34 -10.24 49.04 -10.74 49.54 -10.74C50.15 -10.74 50.44 -10.13 50.44 -8.91L50.38 -2.22C50.38 -1.7 50.37 -1.21 50.34 -0.73C50.31 -0.26 50.29 0 50.29 0.06C50.34 0.12 50.4 0.16 50.51 0.2C50.61 0.22 50.79 0.24 51.04 0.24C51.29 0.24 51.47 0.2 51.61 0.12C51.76 0.04 51.83 -0.06 51.83 -0.18C51.85 -2.44 52.06 -4.38 52.46 -6C52.85 -7.62 53.39 -8.85 54.04 -9.69C54.7 -10.53 55.43 -10.95 56.2 -10.95C57.45 -10.95 58.07 -9.78 58.07 -7.44L58.04 -1.95C58.04 -0.47 58.56 0.27 59.59 0.27C60.09 0.27 60.58 0.08 61.07 -0.3C61.54 -0.68 62.08 -1.27 62.68 -2.07C62.72 -2.11 62.71 -2.16 62.64 -2.23C62.57 -2.31 62.49 -2.34 62.41 -2.34Z"></path></g></g></svg>